<?xml version="1.0" encoding="utf-8"?>
<!-- Generator: Adobe Illustrator 21.0.0, SVG Export Plug-In . SVG Version: 6.00 Build 0)  -->
<svg version="1.1" xmlns="http://www.w3.org/2000/svg" xmlns:xlink="http://www.w3.org/1999/xlink" x="0px" y="0px"
	 viewBox="0 0 14400 14400" style="enable-background:new 0 0 14400 14400;" xml:space="preserve">
<g id="Hand">
	<path fill="#fff" d="M3773.9,9693.6c661.1-98.4,1154.3,127.3,1315.6,74.4c323.7-106.1,579.7-351.9,886.4-491.6
		c276.3-125.9,556.9-74.7,808,103.3c97.4,69.1,96,110.2-3.2,174.7c-244.5,159-493,312.4-731.6,479.7
		c-333.8,234-380.9,648.5-115.7,914.6c132.1,132.5,395.5,244.8,632.8,117.3c235.1-126.4,467.7-257.5,701.7-386.1
		c35.9-19.7,72.9-37.6,110.1-54.9c138.9-64.7,265.2-48,379.7,56.7c447.5,409.2,896.1,817.3,1343.2,1227.1
		c109.3,100.2,142.8,226.1,94.5,366.2c-51.1,148.1-160.2,240.3-313,267c-56.2,9.8-118.4-15-193.4-26.4
		c57.4,154.6,74.8,301.1-57.5,420.7c-126.5,114.4-267.6,103.7-424.1,34.1c-0.2,40.4-1.9,69.1-0.2,97.6
		c15.8,254.3-189.9,428.4-433.5,354c-105.7-32.3-116.2,11.5-122.9,93.2c-21.4,258.3-322.4,396.3-532.9,241.7
		c-125.3-92-223.4-191.4-224-377c-0.7-220-140.5-375.4-344.7-457.2c-75.2-30.1-125.4-65.3-155.5-144.4
		c-56.7-148.9-173.5-240.1-317.2-305.5c-50.3-22.9-100.8-68.8-126.8-117.3c-73.1-136.5-175.2-232.9-317-295.5
		c-48.2-21.3-100-62.9-122.7-108.8c-106.3-215.2-275.6-329.2-512.9-334.4c-278.7-6.1-489,112.6-618,364.2
		c-17.1,33.4-24.8,72.8-46.5,102.2c-15.9,21.6-52.7,49-71.6,43.7c-126.6-36-698.4-386.9-796.3-455.7
		C3422.7,10905.7,3816,10459.1,3773.9,9693.6z"/>
	<path fill="#fff" d="M10356.7,10597.1c16.5,306.1,30.3,612.4,51.4,918.1c5.1,74.2-32.7,284-90.4,397.4c-91.6,180.1-854.5,118.8-1159.7-220.2
		c-198.1-176.3-398-350.6-596.4-526.6c-252.5-223.9-504.3-448.7-756.6-673c-160-142.3-276.3-161.6-466.9-55.5
		c-245.4,136.5-484.6,283.9-727.5,425.1c-213.4,124.1-334.6,107.3-496.4-23.6c-215.6-174.5-183.9-462.1,43.1-622.6
		c335.9-237.5,587.2-456.8,932-681.5c160.8-104.8,328.9-198.7,487-307.3c241.4-165.8,471.9-156.5,701.9,18.6
		c230,175.1,462.3,347.3,691.5,523.4c88,67.6,286.9,57.3,286.9,57.3c269.4,55.6,987.3-207.5,1002.4-264.8
		c31.2,8.4,46.3,38,48.7,96.2C10320.4,9971.3,10339.9,10284.2,10356.7,10597.1z"/>
	<path fill="#fff" d="M5790.7,13557.9c-333.2,50.5-472.9-126-454-367.9c-115.3-37.5-235.1-55.1-330.6-112.9c-113.5-68.7-109.7-204-105.3-331.9
		c-22.7-2-38.9-6-54.4-4.3c-247.2,26.3-415.6-126.5-400.4-372.1c12.2-197,163.5-494.9,455-545.9c205.6-36,420.5,92.4,460.1,296.8
		c15.2,78.6,41.9,116.7,132.2,119.8c142.9,4.8,267.4,125.8,305.1,279.6c20,81.6,40.4,131,148.2,135.7
		c161.5,7,284.4,151.7,308.4,337.7c9.3,72.1,44.3,91.3,102.2,103.1c234.4,47.6,328.9,131,361.6,317.2
		c34,194.1-53.2,377.9-230.8,488.7c-110.3,68.8-228.6,105.1-360,103.5c-192.4-2.4-322.8-125.4-330.4-318
		C5795.9,13646.6,5793.3,13606.4,5790.7,13557.9z"/>
</g>
<g id="A">
	<g>
		<path fill="#fff" d="M10268.2,11962L9071,9931.5c577.1-340.3,1060.7-826,1398.5-1404.6c170.7-292.4,302.5-605.7,391.8-931.2
			c92.2-336.1,138.9-685.5,138.9-1038.4c0-528.8-103.3-1041.2-307-1522.9c-197-465.8-479.2-884.5-838.9-1244.2
			c-359.7-359.7-778.1-642-1243.8-839c-481.5-203.7-993.7-307-1522.3-307c-528.6,0-1040.8,103.3-1522.3,307
			c-465.7,197-884.2,479.3-1243.8,839c-359.7,359.8-641.9,778.4-838.9,1244.2c-203.7,481.7-307,994.1-307,1522.9
			c0,324.2,39.5,646.1,117.5,956.7c75.6,301.1,187.6,593.2,332.9,868.3C3912.4,8923.4,4328,9397,4828.4,9752l-1363.9,1922.5
			c-398.9-283-765-613-1088-980.8c-324.4-369.4-605.1-776.7-834.2-1210.4c-233.5-441.9-413.5-911.5-535-1395.7
			c-125-498-188.3-1012.9-188.3-1530.4c0-845.9,165.9-1667.2,493.1-2441c315.8-746.8,767.6-1417.2,1343-1992.7
			c575.4-575.5,1245.7-1027.5,1992.4-1343.4C5421.2,452.9,6242.4,287,7088.2,287c845.8,0,1667,166,2440.7,493.3
			c746.7,315.9,1417,767.9,1992.4,1343.4c575.3,575.5,1027.2,1245.9,1343,1992.7c327.2,773.8,493.1,1595,493.1,2441
			c0,563.5-75,1122.6-222.9,1661.8c-143.5,523.3-355.3,1026.7-629.4,1496.2C11964.8,10640.8,11191.3,11417.7,10268.2,11962z"/>
	</g>
	<g>
		<rect fill="#fff" x="11004.3" y="6945.6" width="2351.4" height="6156.4"/>
	</g>
</g>
</svg>
